<svg width="116" height="24" viewBox="0 0 116 24" fill="none" xmlns="http://www.w3.org/2000/svg">
<path d="M0.356035 19V2.368H11.588V5.512H4.10004V8.776H10.748V11.848H4.10004V15.856H12.14V19H0.356035ZM19.4467 16.144C19.9747 16.144 20.4067 16.104 20.7427 16.024C21.0947 15.928 21.3747 15.808 21.5827 15.664C21.7907 15.504 21.9347 15.32 22.0147 15.112C22.0947 14.904 22.1347 14.672 22.1347 14.416C22.1347 13.872 21.8787 13.424 21.3667 13.072C20.8547 12.704 19.9747 12.312 18.7267 11.896C18.1827 11.704 17.6387 11.488 17.0947 11.248C16.5507 10.992 16.0627 10.68 15.6307 10.312C15.1987 9.928 14.8467 9.472 14.5747 8.944C14.3027 8.4 14.1667 7.744 14.1667 6.976C14.1667 6.208 14.3107 5.52 14.5987 4.912C14.8867 4.288 15.2947 3.76 15.8227 3.328C16.3507 2.896 16.9907 2.568 17.7427 2.344C18.4947 2.104 19.3427 1.984 20.2867 1.984C21.4067 1.984 22.3747 2.104 23.1907 2.344C24.0067 2.584 24.6787 2.848 25.2067 3.136L24.1267 6.088C23.6627 5.848 23.1427 5.64 22.5667 5.464C22.0067 5.272 21.3267 5.176 20.5267 5.176C19.6307 5.176 18.9827 5.304 18.5827 5.56C18.1987 5.8 18.0067 6.176 18.0067 6.688C18.0067 6.992 18.0787 7.248 18.2227 7.456C18.3667 7.664 18.5667 7.856 18.8227 8.032C19.0947 8.192 19.3987 8.344 19.7347 8.488C20.0867 8.616 20.4707 8.752 20.8867 8.896C21.7507 9.216 22.5027 9.536 23.1427 9.856C23.7827 10.16 24.3107 10.52 24.7267 10.936C25.1587 11.352 25.4787 11.84 25.6867 12.4C25.8947 12.96 25.9987 13.64 25.9987 14.44C25.9987 15.992 25.4547 17.2 24.3667 18.064C23.2787 18.912 21.6387 19.336 19.4467 19.336C18.7107 19.336 18.0467 19.288 17.4547 19.192C16.8627 19.112 16.3347 19.008 15.8707 18.88C15.4227 18.752 15.0307 18.616 14.6947 18.472C14.3747 18.328 14.1027 18.192 13.8787 18.064L14.9347 15.088C15.4307 15.36 16.0387 15.608 16.7587 15.832C17.4947 16.04 18.3907 16.144 19.4467 16.144ZM38.9115 2.368H42.6555V19H38.9115V11.944H32.6235V19H28.8795V2.368H32.6235V8.728H38.9115V2.368ZM63.4061 19C63.2301 18.424 63.0301 17.832 62.8061 17.224C62.5981 16.616 62.3901 16.008 62.1821 15.4H55.7021C55.4941 16.008 55.2781 16.616 55.0541 17.224C54.8461 17.832 54.6541 18.424 54.4781 19H50.5901C51.2141 17.208 51.8061 15.552 52.3661 14.032C52.9261 12.512 53.4701 11.08 53.9981 9.736C54.5421 8.392 55.0701 7.12 55.5821 5.92C56.1101 4.704 56.6541 3.52 57.2141 2.368H60.7901C61.3341 3.52 61.8701 4.704 62.3981 5.92C62.9261 7.12 63.4541 8.392 63.9821 9.736C64.5261 11.08 65.0781 12.512 65.6381 14.032C66.1981 15.552 66.7901 17.208 67.4141 19H63.4061ZM58.9181 6.136C58.8381 6.376 58.7181 6.704 58.5581 7.12C58.3981 7.536 58.2141 8.016 58.0061 8.56C57.7981 9.104 57.5661 9.704 57.3101 10.36C57.0701 11.016 56.8221 11.704 56.5661 12.424H61.2941C61.0381 11.704 60.7901 11.016 60.5501 10.36C60.3101 9.704 60.0781 9.104 59.8541 8.56C59.6461 8.016 59.4621 7.536 59.3021 7.12C59.1421 6.704 59.0141 6.376 58.9181 6.136ZM74.367 19.24C73.327 19.224 72.479 19.112 71.823 18.904C71.183 18.696 70.671 18.408 70.287 18.04C69.919 17.656 69.663 17.2 69.519 16.672C69.391 16.128 69.327 15.52 69.327 14.848V0.951999L72.903 0.375999V14.128C72.903 14.448 72.927 14.736 72.975 14.992C73.023 15.248 73.111 15.464 73.239 15.64C73.383 15.816 73.583 15.96 73.839 16.072C74.095 16.184 74.439 16.256 74.871 16.288L74.367 19.24ZM85.0087 12.784C85.0087 11.68 84.7607 10.8 84.2647 10.144C83.7687 9.472 83.0327 9.136 82.0567 9.136C81.7367 9.136 81.4407 9.152 81.1687 9.184C80.8967 9.2 80.6727 9.224 80.4967 9.256V15.712C80.7207 15.856 81.0087 15.976 81.3607 16.072C81.7287 16.168 82.0967 16.216 82.4647 16.216C84.1607 16.216 85.0087 15.072 85.0087 12.784ZM88.6567 12.688C88.6567 13.664 88.5367 14.552 88.2967 15.352C88.0567 16.152 87.7047 16.84 87.2407 17.416C86.7767 17.992 86.2007 18.44 85.5127 18.76C84.8247 19.08 84.0327 19.24 83.1367 19.24C82.6407 19.24 82.1767 19.192 81.7447 19.096C81.3127 19 80.8967 18.864 80.4967 18.688V23.44H76.9207V6.808C77.2407 6.712 77.6087 6.624 78.0247 6.544C78.4407 6.448 78.8727 6.368 79.3207 6.304C79.7847 6.24 80.2487 6.192 80.7127 6.16C81.1927 6.112 81.6487 6.088 82.0807 6.088C83.1207 6.088 84.0487 6.248 84.8647 6.568C85.6807 6.872 86.3687 7.312 86.9287 7.888C87.4887 8.448 87.9127 9.136 88.2007 9.952C88.5047 10.768 88.6567 11.68 88.6567 12.688ZM91.4051 19V0.951999L94.9811 0.375999V6.424C95.2211 6.344 95.5251 6.272 95.8931 6.208C96.2771 6.128 96.6451 6.088 96.9971 6.088C98.0211 6.088 98.8691 6.232 99.5411 6.52C100.229 6.792 100.773 7.184 101.173 7.696C101.589 8.208 101.877 8.816 102.037 9.52C102.213 10.224 102.301 11.008 102.301 11.872V19H98.7251V12.304C98.7251 11.152 98.5731 10.336 98.2691 9.856C97.9811 9.376 97.4371 9.136 96.6371 9.136C96.3171 9.136 96.0131 9.168 95.7251 9.232C95.4531 9.28 95.2051 9.336 94.9811 9.4V19H91.4051ZM110.362 16.504C110.714 16.504 111.05 16.496 111.37 16.48C111.69 16.464 111.946 16.44 112.138 16.408V13.696C111.994 13.664 111.778 13.632 111.49 13.6C111.202 13.568 110.938 13.552 110.698 13.552C110.362 13.552 110.042 13.576 109.738 13.624C109.45 13.656 109.194 13.728 108.97 13.84C108.746 13.952 108.57 14.104 108.442 14.296C108.314 14.488 108.25 14.728 108.25 15.016C108.25 15.576 108.434 15.968 108.802 16.192C109.186 16.4 109.706 16.504 110.362 16.504ZM110.074 6.04C111.13 6.04 112.01 6.16 112.714 6.4C113.418 6.64 113.978 6.984 114.394 7.432C114.826 7.88 115.13 8.424 115.306 9.064C115.482 9.704 115.57 10.416 115.57 11.2V18.64C115.058 18.752 114.346 18.88 113.434 19.024C112.522 19.184 111.418 19.264 110.122 19.264C109.306 19.264 108.562 19.192 107.89 19.048C107.234 18.904 106.666 18.672 106.186 18.352C105.706 18.016 105.338 17.584 105.082 17.056C104.826 16.528 104.698 15.88 104.698 15.112C104.698 14.376 104.842 13.752 105.13 13.24C105.434 12.728 105.834 12.32 106.33 12.016C106.826 11.712 107.394 11.496 108.034 11.368C108.674 11.224 109.338 11.152 110.026 11.152C110.49 11.152 110.898 11.176 111.25 11.224C111.618 11.256 111.914 11.304 112.138 11.368V11.032C112.138 10.424 111.954 9.936 111.586 9.568C111.218 9.2 110.578 9.016 109.666 9.016C109.058 9.016 108.458 9.064 107.866 9.16C107.274 9.24 106.762 9.36 106.33 9.52L105.874 6.64C106.082 6.576 106.338 6.512 106.642 6.448C106.962 6.368 107.306 6.304 107.674 6.256C108.042 6.192 108.426 6.144 108.826 6.112C109.242 6.064 109.658 6.04 110.074 6.04Z" fill="white"/>
</svg>
