<svg width="56" height="56" viewBox="0 0 56 56" fill="none" xmlns="http://www.w3.org/2000/svg">
<g id="ic_account_circle_48px" clip-path="url(#clip0_75_2262)">
<path id="Vector" d="M28 4.66666C15.1083 4.66666 4.66663 15.1083 4.66663 28C4.66663 40.8917 15.1083 51.3333 28 51.3333C40.8916 51.3333 51.3333 40.8917 51.3333 28C51.3333 15.1083 40.8916 4.66666 28 4.66666ZM28 11.6667C31.8616 11.6667 35 14.805 35 18.6667C35 22.54 31.8616 25.6667 28 25.6667C24.1383 25.6667 21 22.54 21 18.6667C21 14.805 24.1383 11.6667 28 11.6667ZM28 44.8C22.155 44.8 17.0216 41.8133 14 37.2867C14.0583 32.655 23.345 30.1 28 30.1C32.655 30.1 41.93 32.655 42 37.2867C38.9783 41.8133 33.845 44.8 28 44.8Z" fill="white"/>
</g>
<defs>
<clipPath id="clip0_75_2262">
<rect width="56" height="56" fill="white"/>
</clipPath>
</defs>
</svg>
