<svg width="190" height="91" viewBox="0 0 190 91" fill="none" xmlns="http://www.w3.org/2000/svg">
<path d="M33.176 17.344C33.176 20.192 32.76 22.704 31.928 24.88C31.096 27.056 29.96 28.88 28.52 30.352C27.112 31.792 25.464 32.88 23.576 33.616C21.688 34.352 19.688 34.72 17.576 34.72C15.464 34.72 13.464 34.352 11.576 33.616C9.688 32.88 8.024 31.792 6.584 30.352C5.176 28.88 4.056 27.056 3.224 24.88C2.392 22.704 1.976 20.192 1.976 17.344C1.976 14.496 2.392 12 3.224 9.856C4.056 7.68 5.176 5.872 6.584 4.432C8.024 2.96 9.688 1.856 11.576 1.12C13.464 0.383999 15.464 0.0159998 17.576 0.0159998C19.688 0.0159998 21.688 0.383999 23.576 1.12C25.464 1.856 27.112 2.96 28.52 4.432C29.96 5.872 31.096 7.68 31.928 9.856C32.76 12 33.176 14.496 33.176 17.344ZM29.72 17.344C29.72 15.104 29.432 13.104 28.856 11.344C28.28 9.552 27.464 8.032 26.408 6.784C25.352 5.536 24.072 4.592 22.568 3.952C21.096 3.28 19.432 2.944 17.576 2.944C15.72 2.944 14.04 3.28 12.536 3.952C11.064 4.592 9.8 5.536 8.744 6.784C7.688 8.032 6.872 9.552 6.296 11.344C5.72 13.104 5.432 15.104 5.432 17.344C5.432 19.584 5.72 21.6 6.296 23.392C6.872 25.152 7.688 26.656 8.744 27.904C9.8 29.152 11.064 30.112 12.536 30.784C14.04 31.456 15.72 31.792 17.576 31.792C19.432 31.792 21.096 31.456 22.568 30.784C24.072 30.112 25.352 29.152 26.408 27.904C27.464 26.656 28.28 25.152 28.856 23.392C29.432 21.6 29.72 19.584 29.72 17.344ZM59.3559 33.136C58.4279 33.392 57.1799 33.68 55.6119 34C54.0439 34.32 52.1239 34.48 49.8519 34.48C47.9959 34.48 46.4439 34.208 45.1959 33.664C43.9479 33.12 42.9399 32.352 42.1719 31.36C41.4039 30.368 40.8439 29.168 40.4919 27.76C40.1719 26.352 40.0119 24.8 40.0119 23.104V9.184H43.1319V22.096C43.1319 23.856 43.2599 25.344 43.5159 26.56C43.7719 27.776 44.1879 28.768 44.7639 29.536C45.3399 30.272 46.0759 30.816 46.9719 31.168C47.8999 31.488 49.0199 31.648 50.3319 31.648C51.8039 31.648 53.0839 31.568 54.1719 31.408C55.2599 31.248 55.9479 31.104 56.2359 30.976V9.184H59.3559V33.136ZM76.076 8.704C77.1 8.704 78.06 8.784 78.956 8.944C79.884 9.104 80.524 9.264 80.876 9.424L80.252 12.112C79.996 11.984 79.468 11.856 78.668 11.728C77.9 11.568 76.876 11.488 75.596 11.488C74.252 11.488 73.164 11.584 72.332 11.776C71.532 11.968 71.004 12.128 70.748 12.256V34H67.628V10.336C68.428 9.984 69.532 9.632 70.94 9.28C72.348 8.896 74.06 8.704 76.076 8.704Z" fill="#AD57C5"/>
<path d="M11.912 84.288C12.968 84.288 13.832 84.208 14.504 84.048C15.208 83.856 15.768 83.616 16.184 83.328C16.6 83.008 16.888 82.64 17.048 82.224C17.208 81.808 17.288 81.344 17.288 80.832C17.288 79.744 16.776 78.848 15.752 78.144C14.728 77.408 12.968 76.624 10.472 75.792C9.384 75.408 8.296 74.976 7.208 74.496C6.12 73.984 5.144 73.36 4.28 72.624C3.416 71.856 2.712 70.944 2.168 69.888C1.624 68.8 1.352 67.488 1.352 65.952C1.352 64.416 1.64 63.04 2.216 61.824C2.792 60.576 3.608 59.52 4.664 58.656C5.72 57.792 7 57.136 8.504 56.688C10.008 56.208 11.704 55.968 13.592 55.968C15.832 55.968 17.768 56.208 19.4 56.688C21.032 57.168 22.376 57.696 23.432 58.272L21.272 64.176C20.344 63.696 19.304 63.28 18.152 62.928C17.032 62.544 15.672 62.352 14.072 62.352C12.28 62.352 10.984 62.608 10.184 63.12C9.416 63.6 9.032 64.352 9.032 65.376C9.032 65.984 9.176 66.496 9.464 66.912C9.752 67.328 10.152 67.712 10.664 68.064C11.208 68.384 11.816 68.688 12.488 68.976C13.192 69.232 13.96 69.504 14.792 69.792C16.52 70.432 18.024 71.072 19.304 71.712C20.584 72.32 21.64 73.04 22.472 73.872C23.336 74.704 23.976 75.68 24.392 76.8C24.808 77.92 25.016 79.28 25.016 80.88C25.016 83.984 23.928 86.4 21.752 88.128C19.576 89.824 16.296 90.672 11.912 90.672C10.44 90.672 9.112 90.576 7.928 90.384C6.744 90.224 5.688 90.016 4.76 89.76C3.864 89.504 3.08 89.232 2.408 88.944C1.768 88.656 1.224 88.384 0.776 88.128L2.888 82.176C3.88 82.72 5.096 83.216 6.536 83.664C8.008 84.08 9.8 84.288 11.912 84.288ZM29.0975 77.568C29.0975 75.328 29.4335 73.376 30.1055 71.712C30.8095 70.016 31.7215 68.608 32.8415 67.488C33.9615 66.368 35.2415 65.52 36.6815 64.944C38.1535 64.368 39.6575 64.08 41.1935 64.08C44.7775 64.08 47.6095 65.184 49.6895 67.392C51.7695 69.568 52.8095 72.784 52.8095 77.04C52.8095 77.456 52.7935 77.92 52.7615 78.432C52.7295 78.912 52.6975 79.344 52.6655 79.728H36.4415C36.6015 81.2 37.2895 82.368 38.5055 83.232C39.7215 84.096 41.3535 84.528 43.4015 84.528C44.7135 84.528 45.9935 84.416 47.2415 84.192C48.5215 83.936 49.5615 83.632 50.3615 83.28L51.3215 89.088C50.9375 89.28 50.4255 89.472 49.7855 89.664C49.1455 89.856 48.4255 90.016 47.6255 90.144C46.8575 90.304 46.0255 90.432 45.1295 90.528C44.2335 90.624 43.3375 90.672 42.4415 90.672C40.1695 90.672 38.1855 90.336 36.4895 89.664C34.8255 88.992 33.4335 88.08 32.3135 86.928C31.2255 85.744 30.4095 84.352 29.8655 82.752C29.3535 81.152 29.0975 79.424 29.0975 77.568ZM45.8975 74.832C45.8655 74.224 45.7535 73.632 45.5615 73.056C45.4015 72.48 45.1295 71.968 44.7455 71.52C44.3935 71.072 43.9295 70.704 43.3535 70.416C42.8095 70.128 42.1215 69.984 41.2895 69.984C40.4895 69.984 39.8015 70.128 39.2255 70.416C38.6495 70.672 38.1695 71.024 37.7855 71.472C37.4015 71.92 37.0975 72.448 36.8735 73.056C36.6815 73.632 36.5375 74.224 36.4415 74.832H45.8975ZM73.5448 71.088C72.9048 70.928 72.1528 70.768 71.2888 70.608C70.4248 70.416 69.4968 70.32 68.5048 70.32C68.0568 70.32 67.5128 70.368 66.8728 70.464C66.2648 70.528 65.8008 70.608 65.4808 70.704V90H58.3288V66.096C59.6088 65.648 61.1128 65.232 62.8408 64.848C64.6008 64.432 66.5528 64.224 68.6968 64.224C69.0808 64.224 69.5448 64.256 70.0888 64.32C70.6328 64.352 71.1768 64.416 71.7208 64.512C72.2648 64.576 72.8088 64.672 73.3528 64.8C73.8968 64.896 74.3608 65.024 74.7448 65.184L73.5448 71.088ZM86.9428 90C85.3108 86.8 83.6468 83.056 81.9508 78.768C80.2868 74.48 78.7028 69.808 77.1988 64.752H84.7828C85.1028 66 85.4708 67.36 85.8868 68.832C86.3348 70.272 86.7828 71.744 87.2308 73.248C87.7108 74.72 88.1748 76.16 88.6228 77.568C89.1028 78.976 89.5668 80.256 90.0148 81.408C90.4308 80.256 90.8788 78.976 91.3588 77.568C91.8388 76.16 92.3028 74.72 92.7508 73.248C93.2308 71.744 93.6788 70.272 94.0948 68.832C94.5428 67.36 94.9268 66 95.2468 64.752H102.639C101.135 69.808 99.5348 74.48 97.8388 78.768C96.1748 83.056 94.5268 86.8 92.8948 90H86.9428ZM113.621 90H106.469V64.752H113.621V90ZM114.293 57.456C114.293 58.768 113.861 59.808 112.997 60.576C112.165 61.312 111.173 61.68 110.021 61.68C108.869 61.68 107.861 61.312 106.997 60.576C106.165 59.808 105.749 58.768 105.749 57.456C105.749 56.144 106.165 55.12 106.997 54.384C107.861 53.616 108.869 53.232 110.021 53.232C111.173 53.232 112.165 53.616 112.997 54.384C113.861 55.12 114.293 56.144 114.293 57.456ZM119.144 77.376C119.144 75.552 119.432 73.84 120.008 72.24C120.616 70.608 121.48 69.2 122.6 68.016C123.72 66.8 125.08 65.84 126.68 65.136C128.28 64.432 130.104 64.08 132.152 64.08C133.496 64.08 134.728 64.208 135.848 64.464C136.968 64.688 138.056 65.024 139.112 65.472L137.624 71.184C136.952 70.928 136.216 70.704 135.416 70.512C134.616 70.32 133.72 70.224 132.728 70.224C130.616 70.224 129.032 70.88 127.976 72.192C126.952 73.504 126.44 75.232 126.44 77.376C126.44 79.648 126.92 81.408 127.88 82.656C128.872 83.904 130.584 84.528 133.016 84.528C133.88 84.528 134.808 84.448 135.8 84.288C136.792 84.128 137.704 83.872 138.536 83.52L139.544 89.376C138.712 89.728 137.672 90.032 136.424 90.288C135.176 90.544 133.8 90.672 132.296 90.672C129.992 90.672 128.008 90.336 126.344 89.664C124.68 88.96 123.304 88.016 122.216 86.832C121.16 85.648 120.376 84.256 119.864 82.656C119.384 81.024 119.144 79.264 119.144 77.376ZM141.926 77.568C141.926 75.328 142.262 73.376 142.934 71.712C143.638 70.016 144.55 68.608 145.67 67.488C146.79 66.368 148.07 65.52 149.51 64.944C150.982 64.368 152.486 64.08 154.022 64.08C157.606 64.08 160.438 65.184 162.518 67.392C164.598 69.568 165.638 72.784 165.638 77.04C165.638 77.456 165.622 77.92 165.59 78.432C165.558 78.912 165.526 79.344 165.494 79.728H149.27C149.43 81.2 150.118 82.368 151.334 83.232C152.55 84.096 154.182 84.528 156.23 84.528C157.542 84.528 158.822 84.416 160.07 84.192C161.35 83.936 162.39 83.632 163.19 83.28L164.15 89.088C163.766 89.28 163.254 89.472 162.614 89.664C161.974 89.856 161.254 90.016 160.454 90.144C159.686 90.304 158.854 90.432 157.958 90.528C157.062 90.624 156.166 90.672 155.27 90.672C152.998 90.672 151.014 90.336 149.318 89.664C147.654 88.992 146.262 88.08 145.142 86.928C144.054 85.744 143.238 84.352 142.694 82.752C142.182 81.152 141.926 79.424 141.926 77.568ZM158.726 74.832C158.694 74.224 158.582 73.632 158.39 73.056C158.23 72.48 157.958 71.968 157.574 71.52C157.222 71.072 156.758 70.704 156.182 70.416C155.638 70.128 154.95 69.984 154.118 69.984C153.318 69.984 152.63 70.128 152.054 70.416C151.478 70.672 150.998 71.024 150.614 71.472C150.23 71.92 149.926 72.448 149.702 73.056C149.51 73.632 149.366 74.224 149.27 74.832H158.726ZM178.405 84.864C179.717 84.864 180.645 84.736 181.189 84.48C181.733 84.224 182.005 83.728 182.005 82.992C182.005 82.416 181.653 81.92 180.949 81.504C180.245 81.056 179.173 80.56 177.733 80.016C176.613 79.6 175.589 79.168 174.661 78.72C173.765 78.272 172.997 77.744 172.357 77.136C171.717 76.496 171.221 75.744 170.869 74.88C170.517 74.016 170.341 72.976 170.341 71.76C170.341 69.392 171.221 67.52 172.981 66.144C174.741 64.768 177.157 64.08 180.229 64.08C181.765 64.08 183.237 64.224 184.645 64.512C186.053 64.768 187.173 65.056 188.005 65.376L186.757 70.944C185.925 70.656 185.013 70.4 184.021 70.176C183.061 69.952 181.973 69.84 180.757 69.84C178.517 69.84 177.397 70.464 177.397 71.712C177.397 72 177.445 72.256 177.541 72.48C177.637 72.704 177.829 72.928 178.117 73.152C178.405 73.344 178.789 73.568 179.269 73.824C179.781 74.048 180.421 74.304 181.189 74.592C182.757 75.168 184.053 75.744 185.077 76.32C186.101 76.864 186.901 77.472 187.477 78.144C188.085 78.784 188.501 79.504 188.725 80.304C188.981 81.104 189.109 82.032 189.109 83.088C189.109 85.584 188.165 87.472 186.277 88.752C184.421 90.032 181.781 90.672 178.357 90.672C176.117 90.672 174.245 90.48 172.741 90.096C171.269 89.712 170.245 89.392 169.669 89.136L170.869 83.328C172.085 83.808 173.333 84.192 174.613 84.48C175.893 84.736 177.157 84.864 178.405 84.864Z" fill="black"/>
</svg>
