<svg width="56" height="56" viewBox="0 0 56 56" fill="none" xmlns="http://www.w3.org/2000/svg">
<g clip-path="url(#clip0_75_2272)">
<path d="M45.3366 30.275C45.43 29.5283 45.5 28.77 45.5 28C45.5 27.23 45.43 26.4717 45.3366 25.725L50.2716 21.8633C50.715 21.5133 50.8433 20.8833 50.5516 20.37L45.885 12.285C45.5933 11.7833 44.9866 11.5733 44.4616 11.7833L38.6516 14.1283C37.45 13.2067 36.1316 12.425 34.7083 11.83L33.8333 5.64666C33.7283 5.09832 33.25 4.66666 32.6666 4.66666H23.3333C22.75 4.66666 22.2716 5.09832 22.1783 5.64666L21.3033 11.83C19.88 12.425 18.5616 13.195 17.36 14.1283L11.55 11.7833C11.025 11.585 10.4183 11.7833 10.1266 12.285L5.45996 20.37C5.1683 20.8717 5.29663 21.5017 5.73996 21.8633L10.6633 25.725C10.57 26.4717 10.5 27.23 10.5 28C10.5 28.77 10.57 29.5283 10.6633 30.275L5.73996 34.1367C5.29663 34.4867 5.1683 35.1167 5.45996 35.63L10.1266 43.715C10.4183 44.2167 11.025 44.4267 11.55 44.2167L17.36 41.8717C18.5616 42.7933 19.88 43.575 21.3033 44.17L22.1783 50.3533C22.2716 50.9017 22.75 51.3333 23.3333 51.3333H32.6666C33.25 51.3333 33.7283 50.9017 33.8216 50.3533L34.6966 44.17C36.12 43.575 37.4383 42.805 38.64 41.8717L44.45 44.2167C44.975 44.415 45.5816 44.2167 45.8733 43.715L50.54 35.63C50.8316 35.1283 50.7033 34.4983 50.26 34.1367L45.3366 30.275ZM28 36.1667C23.485 36.1667 19.8333 32.515 19.8333 28C19.8333 23.485 23.485 19.8333 28 19.8333C32.515 19.8333 36.1666 23.485 36.1666 28C36.1666 32.515 32.515 36.1667 28 36.1667Z" fill="white"/>
</g>
<defs>
<clipPath id="clip0_75_2272">
<rect width="56" height="56" fill="white"/>
</clipPath>
</defs>
</svg>
