<svg width="286" height="116" viewBox="0 0 286 116" fill="none" xmlns="http://www.w3.org/2000/svg">
<path d="M25.514 9.168C27.242 14.964 28.97 20.22 30.698 24.936C32.462 29.616 34.172 33.918 35.828 37.842C37.088 33.594 38.33 28.59 39.554 22.83C40.814 17.07 42.02 10.986 43.172 4.578H46.79C46.142 8.43 45.476 12.048 44.792 15.432C44.144 18.78 43.46 21.984 42.74 25.044C42.02 28.068 41.264 30.984 40.472 33.792C39.68 36.564 38.816 39.3 37.88 42H33.938C33.074 39.948 32.21 37.896 31.346 35.844C30.518 33.792 29.69 31.686 28.862 29.526C28.034 27.33 27.206 25.044 26.378 22.668C25.55 20.292 24.704 17.772 23.84 15.108C22.976 17.772 22.112 20.292 21.248 22.668C20.42 25.044 19.592 27.33 18.764 29.526C17.936 31.686 17.09 33.792 16.226 35.844C15.398 37.896 14.552 39.948 13.688 42H9.8C8.828 39.3 7.928 36.564 7.1 33.792C6.308 30.984 5.552 28.068 4.832 25.044C4.148 21.984 3.482 18.78 2.834 15.432C2.222 12.048 1.592 8.43 0.944 4.578H4.724C5.264 7.746 5.822 10.86 6.398 13.92C6.974 16.944 7.568 19.878 8.18 22.722C8.828 25.566 9.476 28.266 10.124 30.822C10.808 33.342 11.474 35.682 12.122 37.842C13.67 33.846 15.326 29.526 17.09 24.882C18.854 20.202 20.6 14.964 22.328 9.168H25.514ZM51.1184 28.014C51.1184 25.566 51.4604 23.442 52.1444 21.642C52.8644 19.806 53.7824 18.276 54.8984 17.052C56.0504 15.828 57.3464 14.928 58.7864 14.352C60.2624 13.74 61.7744 13.434 63.3224 13.434C66.7424 13.434 69.4604 14.55 71.4764 16.782C73.5284 19.014 74.5544 22.452 74.5544 27.096C74.5544 27.384 74.5364 27.672 74.5004 27.96C74.5004 28.248 74.4824 28.518 74.4464 28.77H54.8444C54.9524 32.19 55.7984 34.818 57.3824 36.654C58.9664 38.49 61.4864 39.408 64.9424 39.408C66.8504 39.408 68.3624 39.228 69.4784 38.868C70.5944 38.508 71.4044 38.202 71.9084 37.95L72.5564 40.974C72.0524 41.262 71.0984 41.604 69.6944 42C68.3264 42.396 66.7064 42.594 64.8344 42.594C62.3864 42.594 60.2984 42.234 58.5704 41.514C56.8424 40.794 55.4204 39.786 54.3044 38.49C53.1884 37.194 52.3784 35.664 51.8744 33.9C51.3704 32.1 51.1184 30.138 51.1184 28.014ZM70.9364 25.8C70.8644 22.884 70.1804 20.616 68.8844 18.996C67.5884 17.376 65.7524 16.566 63.3764 16.566C62.1164 16.566 60.9824 16.818 59.9744 17.322C59.0024 17.826 58.1384 18.51 57.3824 19.374C56.6624 20.202 56.0864 21.174 55.6544 22.29C55.2584 23.406 55.0244 24.576 54.9524 25.8H70.9364ZM89.4504 42.486C88.2624 42.45 87.2184 42.288 86.3184 42C85.4544 41.748 84.7164 41.352 84.1044 40.812C83.5284 40.236 83.0784 39.516 82.7544 38.652C82.4664 37.752 82.3224 36.636 82.3224 35.304V0.743997L85.8324 0.0959988V35.196C85.8324 36.06 85.9044 36.762 86.0484 37.302C86.2284 37.806 86.4804 38.22 86.8044 38.544C87.1284 38.832 87.5424 39.048 88.0464 39.192C88.5864 39.336 89.2164 39.462 89.9364 39.57L89.4504 42.486ZM107.696 42.594C105.536 42.594 103.628 42.252 101.972 41.568C100.316 40.884 98.9301 39.912 97.8141 38.652C96.7341 37.356 95.9061 35.826 95.3301 34.062C94.7541 32.262 94.4661 30.282 94.4661 28.122C94.4661 25.926 94.7541 23.928 95.3301 22.128C95.9421 20.328 96.8061 18.78 97.9221 17.484C99.0381 16.188 100.388 15.198 101.972 14.514C103.556 13.794 105.338 13.434 107.318 13.434C108.83 13.434 110.234 13.56 111.53 13.812C112.862 14.064 113.888 14.388 114.608 14.784L113.69 17.808C112.97 17.448 112.16 17.16 111.26 16.944C110.36 16.728 109.154 16.62 107.642 16.62C104.546 16.62 102.188 17.628 100.568 19.644C98.9841 21.624 98.1921 24.45 98.1921 28.122C98.1921 29.778 98.3721 31.308 98.7321 32.712C99.0921 34.08 99.6681 35.268 100.46 36.276C101.288 37.248 102.332 38.022 103.592 38.598C104.888 39.138 106.454 39.408 108.29 39.408C109.802 39.408 111.062 39.246 112.07 38.922C113.114 38.562 113.87 38.256 114.338 38.004L115.094 41.028C114.446 41.388 113.42 41.73 112.016 42.054C110.648 42.414 109.208 42.594 107.696 42.594ZM144.792 28.068C144.792 30.264 144.468 32.262 143.82 34.062C143.208 35.862 142.326 37.392 141.174 38.652C140.058 39.912 138.726 40.902 137.178 41.622C135.63 42.306 133.92 42.648 132.048 42.648C130.176 42.648 128.466 42.306 126.918 41.622C125.37 40.902 124.02 39.912 122.868 38.652C121.752 37.392 120.87 35.862 120.222 34.062C119.61 32.262 119.304 30.264 119.304 28.068C119.304 25.872 119.61 23.874 120.222 22.074C120.87 20.274 121.752 18.744 122.868 17.484C124.02 16.188 125.37 15.198 126.918 14.514C128.466 13.794 130.176 13.434 132.048 13.434C133.92 13.434 135.63 13.794 137.178 14.514C138.726 15.198 140.058 16.188 141.174 17.484C142.326 18.744 143.208 20.274 143.82 22.074C144.468 23.874 144.792 25.872 144.792 28.068ZM141.066 28.068C141.066 24.576 140.256 21.804 138.636 19.752C137.016 17.664 134.82 16.62 132.048 16.62C129.276 16.62 127.08 17.664 125.46 19.752C123.84 21.804 123.03 24.576 123.03 28.068C123.03 31.56 123.84 34.332 125.46 36.384C127.08 38.436 129.276 39.462 132.048 39.462C134.82 39.462 137.016 38.436 138.636 36.384C140.256 34.332 141.066 31.56 141.066 28.068ZM152.408 15.054C153.452 14.766 154.802 14.442 156.458 14.082C158.15 13.722 160.328 13.542 162.992 13.542C166.52 13.542 169.076 14.568 170.66 16.62C170.84 16.476 171.182 16.242 171.686 15.918C172.226 15.558 172.892 15.198 173.684 14.838C174.476 14.478 175.394 14.172 176.438 13.92C177.518 13.668 178.706 13.542 180.002 13.542C182.126 13.542 183.836 13.866 185.132 14.514C186.464 15.126 187.49 16.008 188.21 17.16C188.93 18.276 189.416 19.626 189.668 21.21C189.92 22.794 190.046 24.522 190.046 26.394V42H186.536V27.528C186.536 25.692 186.446 24.108 186.266 22.776C186.122 21.408 185.798 20.292 185.294 19.428C184.826 18.528 184.142 17.862 183.242 17.43C182.342 16.962 181.172 16.728 179.732 16.728C178.652 16.728 177.662 16.836 176.762 17.052C175.898 17.232 175.142 17.466 174.494 17.754C173.846 18.042 173.306 18.33 172.874 18.618C172.478 18.906 172.19 19.122 172.01 19.266C172.334 20.202 172.568 21.264 172.712 22.452C172.892 23.604 172.982 24.828 172.982 26.124V42H169.472V27.528C169.472 25.692 169.382 24.108 169.202 22.776C169.058 21.408 168.734 20.292 168.23 19.428C167.726 18.528 167.006 17.862 166.07 17.43C165.17 16.962 163.964 16.728 162.452 16.728C160.76 16.728 159.32 16.818 158.132 16.998C156.98 17.178 156.242 17.34 155.918 17.484V42H152.408V15.054ZM197.351 28.014C197.351 25.566 197.693 23.442 198.377 21.642C199.097 19.806 200.015 18.276 201.131 17.052C202.283 15.828 203.579 14.928 205.019 14.352C206.495 13.74 208.007 13.434 209.555 13.434C212.975 13.434 215.693 14.55 217.709 16.782C219.761 19.014 220.787 22.452 220.787 27.096C220.787 27.384 220.769 27.672 220.733 27.96C220.733 28.248 220.715 28.518 220.679 28.77H201.077C201.185 32.19 202.031 34.818 203.615 36.654C205.199 38.49 207.719 39.408 211.175 39.408C213.083 39.408 214.595 39.228 215.711 38.868C216.827 38.508 217.637 38.202 218.141 37.95L218.789 40.974C218.285 41.262 217.331 41.604 215.927 42C214.559 42.396 212.939 42.594 211.067 42.594C208.619 42.594 206.531 42.234 204.803 41.514C203.075 40.794 201.653 39.786 200.537 38.49C199.421 37.194 198.611 35.664 198.107 33.9C197.603 32.1 197.351 30.138 197.351 28.014ZM217.169 25.8C217.097 22.884 216.413 20.616 215.117 18.996C213.821 17.376 211.985 16.566 209.609 16.566C208.349 16.566 207.215 16.818 206.207 17.322C205.235 17.826 204.371 18.51 203.615 19.374C202.895 20.202 202.319 21.174 201.887 22.29C201.491 23.406 201.257 24.576 201.185 25.8H217.169ZM244.19 14.082H255.314V17.052H244.19V31.902C244.19 33.486 244.316 34.782 244.568 35.79C244.856 36.762 245.252 37.518 245.756 38.058C246.26 38.598 246.872 38.958 247.592 39.138C248.312 39.318 249.104 39.408 249.968 39.408C251.444 39.408 252.632 39.246 253.532 38.922C254.432 38.562 255.134 38.238 255.638 37.95L256.502 40.866C255.998 41.19 255.116 41.568 253.856 42C252.596 42.396 251.228 42.594 249.752 42.594C248.024 42.594 246.566 42.378 245.378 41.946C244.226 41.478 243.29 40.794 242.57 39.894C241.886 38.958 241.4 37.806 241.112 36.438C240.824 35.07 240.68 33.45 240.68 31.578V5.874L244.19 5.226V14.082ZM285.593 28.068C285.593 30.264 285.269 32.262 284.621 34.062C284.009 35.862 283.127 37.392 281.975 38.652C280.859 39.912 279.527 40.902 277.979 41.622C276.431 42.306 274.721 42.648 272.849 42.648C270.977 42.648 269.267 42.306 267.719 41.622C266.171 40.902 264.821 39.912 263.669 38.652C262.553 37.392 261.671 35.862 261.023 34.062C260.411 32.262 260.105 30.264 260.105 28.068C260.105 25.872 260.411 23.874 261.023 22.074C261.671 20.274 262.553 18.744 263.669 17.484C264.821 16.188 266.171 15.198 267.719 14.514C269.267 13.794 270.977 13.434 272.849 13.434C274.721 13.434 276.431 13.794 277.979 14.514C279.527 15.198 280.859 16.188 281.975 17.484C283.127 18.744 284.009 20.274 284.621 22.074C285.269 23.874 285.593 25.872 285.593 28.068ZM281.867 28.068C281.867 24.576 281.057 21.804 279.437 19.752C277.817 17.664 275.621 16.62 272.849 16.62C270.077 16.62 267.881 17.664 266.261 19.752C264.641 21.804 263.831 24.576 263.831 28.068C263.831 31.56 264.641 34.332 266.261 36.384C267.881 38.436 270.077 39.462 272.849 39.462C275.621 39.462 277.817 38.436 279.437 36.384C281.057 34.332 281.867 31.56 281.867 28.068ZM3.32 106V68.578H28.592V75.652H11.744V82.996H26.702V89.908H11.744V98.926H29.834V106H3.32ZM46.274 99.574C47.462 99.574 48.434 99.484 49.19 99.304C49.982 99.088 50.612 98.818 51.08 98.494C51.548 98.134 51.872 97.72 52.052 97.252C52.232 96.784 52.322 96.262 52.322 95.686C52.322 94.462 51.746 93.454 50.594 92.662C49.442 91.834 47.462 90.952 44.654 90.016C43.43 89.584 42.206 89.098 40.982 88.558C39.758 87.982 38.66 87.28 37.688 86.452C36.716 85.588 35.924 84.562 35.312 83.374C34.7 82.15 34.394 80.674 34.394 78.946C34.394 77.218 34.718 75.67 35.366 74.302C36.014 72.898 36.932 71.71 38.12 70.738C39.308 69.766 40.748 69.028 42.44 68.524C44.132 67.984 46.04 67.714 48.164 67.714C50.684 67.714 52.862 67.984 54.698 68.524C56.534 69.064 58.046 69.658 59.234 70.306L56.804 76.948C55.76 76.408 54.59 75.94 53.294 75.544C52.034 75.112 50.504 74.896 48.704 74.896C46.688 74.896 45.23 75.184 44.33 75.76C43.466 76.3 43.034 77.146 43.034 78.298C43.034 78.982 43.196 79.558 43.52 80.026C43.844 80.494 44.294 80.926 44.87 81.322C45.482 81.682 46.166 82.024 46.922 82.348C47.714 82.636 48.578 82.942 49.514 83.266C51.458 83.986 53.15 84.706 54.59 85.426C56.03 86.11 57.218 86.92 58.154 87.856C59.126 88.792 59.846 89.89 60.314 91.15C60.782 92.41 61.016 93.94 61.016 95.74C61.016 99.232 59.792 101.95 57.344 103.894C54.896 105.802 51.206 106.756 46.274 106.756C44.618 106.756 43.124 106.648 41.792 106.432C40.46 106.252 39.272 106.018 38.228 105.73C37.22 105.442 36.338 105.136 35.582 104.812C34.862 104.488 34.25 104.182 33.746 103.894L36.122 97.198C37.238 97.81 38.606 98.368 40.226 98.872C41.882 99.34 43.898 99.574 46.274 99.574ZM90.0697 68.578H98.4937V106H90.0697V90.124H75.9217V106H67.4977V68.578H75.9217V82.888H90.0697V68.578ZM145.183 106C144.787 104.704 144.337 103.372 143.833 102.004C143.365 100.636 142.897 99.268 142.429 97.9H127.849C127.381 99.268 126.895 100.636 126.391 102.004C125.923 103.372 125.491 104.704 125.095 106H116.347C117.751 101.968 119.083 98.242 120.343 94.822C121.603 91.402 122.827 88.18 124.015 85.156C125.239 82.132 126.427 79.27 127.579 76.57C128.767 73.834 129.991 71.17 131.251 68.578H139.297C140.521 71.17 141.727 73.834 142.915 76.57C144.103 79.27 145.291 82.132 146.479 85.156C147.703 88.18 148.945 91.402 150.205 94.822C151.465 98.242 152.797 101.968 154.201 106H145.183ZM135.085 77.056C134.905 77.596 134.635 78.334 134.275 79.27C133.915 80.206 133.501 81.286 133.033 82.51C132.565 83.734 132.043 85.084 131.467 86.56C130.927 88.036 130.369 89.584 129.793 91.204H140.431C139.855 89.584 139.297 88.036 138.757 86.56C138.217 85.084 137.695 83.734 137.191 82.51C136.723 81.286 136.309 80.206 135.949 79.27C135.589 78.334 135.301 77.596 135.085 77.056ZM169.845 106.54C167.505 106.504 165.597 106.252 164.121 105.784C162.681 105.316 161.529 104.668 160.665 103.84C159.837 102.976 159.261 101.95 158.937 100.762C158.649 99.538 158.505 98.17 158.505 96.658V65.392L166.551 64.096V95.038C166.551 95.758 166.605 96.406 166.713 96.982C166.821 97.558 167.019 98.044 167.307 98.44C167.631 98.836 168.081 99.16 168.657 99.412C169.233 99.664 170.007 99.826 170.979 99.898L169.845 106.54ZM193.789 92.014C193.789 89.53 193.231 87.55 192.115 86.074C190.999 84.562 189.343 83.806 187.147 83.806C186.427 83.806 185.761 83.842 185.149 83.914C184.537 83.95 184.033 84.004 183.637 84.076V98.602C184.141 98.926 184.789 99.196 185.581 99.412C186.409 99.628 187.237 99.736 188.065 99.736C191.881 99.736 193.789 97.162 193.789 92.014ZM201.997 91.798C201.997 93.994 201.727 95.992 201.187 97.792C200.647 99.592 199.855 101.14 198.811 102.436C197.767 103.732 196.471 104.74 194.923 105.46C193.375 106.18 191.593 106.54 189.577 106.54C188.461 106.54 187.417 106.432 186.445 106.216C185.473 106 184.537 105.694 183.637 105.298V115.99H175.591V78.568C176.311 78.352 177.139 78.154 178.075 77.974C179.011 77.758 179.983 77.578 180.991 77.434C182.035 77.29 183.079 77.182 184.123 77.11C185.203 77.002 186.229 76.948 187.201 76.948C189.541 76.948 191.629 77.308 193.465 78.028C195.301 78.712 196.849 79.702 198.109 80.998C199.369 82.258 200.323 83.806 200.971 85.642C201.655 87.478 201.997 89.53 201.997 91.798ZM208.18 106V65.392L216.226 64.096V77.704C216.766 77.524 217.45 77.362 218.278 77.218C219.142 77.038 219.97 76.948 220.762 76.948C223.066 76.948 224.974 77.272 226.486 77.92C228.034 78.532 229.258 79.414 230.158 80.566C231.094 81.718 231.742 83.086 232.102 84.67C232.498 86.254 232.696 88.018 232.696 89.962V106H224.65V90.934C224.65 88.342 224.308 86.506 223.624 85.426C222.976 84.346 221.752 83.806 219.952 83.806C219.232 83.806 218.548 83.878 217.9 84.022C217.288 84.13 216.73 84.256 216.226 84.4V106H208.18ZM250.833 100.384C251.625 100.384 252.381 100.366 253.101 100.33C253.821 100.294 254.397 100.24 254.829 100.168V94.066C254.505 93.994 254.019 93.922 253.371 93.85C252.723 93.778 252.129 93.742 251.589 93.742C250.833 93.742 250.113 93.796 249.429 93.904C248.781 93.976 248.205 94.138 247.701 94.39C247.197 94.642 246.801 94.984 246.513 95.416C246.225 95.848 246.081 96.388 246.081 97.036C246.081 98.296 246.495 99.178 247.323 99.682C248.187 100.15 249.357 100.384 250.833 100.384ZM250.185 76.84C252.561 76.84 254.541 77.11 256.125 77.65C257.709 78.19 258.969 78.964 259.905 79.972C260.877 80.98 261.561 82.204 261.957 83.644C262.353 85.084 262.551 86.686 262.551 88.45V105.19C261.399 105.442 259.797 105.73 257.745 106.054C255.693 106.414 253.209 106.594 250.293 106.594C248.457 106.594 246.783 106.432 245.271 106.108C243.795 105.784 242.517 105.262 241.437 104.542C240.357 103.786 239.529 102.814 238.953 101.626C238.377 100.438 238.089 98.98 238.089 97.252C238.089 95.596 238.413 94.192 239.061 93.04C239.745 91.888 240.645 90.97 241.761 90.286C242.877 89.602 244.155 89.116 245.595 88.828C247.035 88.504 248.529 88.342 250.077 88.342C251.121 88.342 252.039 88.396 252.831 88.504C253.659 88.576 254.325 88.684 254.829 88.828V88.072C254.829 86.704 254.415 85.606 253.587 84.778C252.759 83.95 251.319 83.536 249.267 83.536C247.899 83.536 246.549 83.644 245.217 83.86C243.885 84.04 242.733 84.31 241.761 84.67L240.735 78.19C241.203 78.046 241.779 77.902 242.463 77.758C243.183 77.578 243.957 77.434 244.785 77.326C245.613 77.182 246.477 77.074 247.377 77.002C248.313 76.894 249.249 76.84 250.185 76.84Z" fill="white"/>
</svg>
