<svg width="235" height="103" viewBox="0 0 235 103" fill="none" xmlns="http://www.w3.org/2000/svg">
<path d="M26.688 38C26.08 36.368 25.504 34.8 24.96 33.296C24.416 31.792 23.888 30.32 23.376 28.88H7.2C6.656 30.32 6.112 31.792 5.568 33.296C5.024 34.8 4.464 36.368 3.888 38H0.48C1.76 34.544 2.96 31.328 4.08 28.352C5.2 25.344 6.288 22.512 7.344 19.856C8.432 17.168 9.504 14.592 10.56 12.128C11.616 9.664 12.736 7.2 13.92 4.736H16.8C17.984 7.2 19.104 9.664 20.16 12.128C21.216 14.592 22.272 17.168 23.328 19.856C24.416 22.512 25.52 25.344 26.64 28.352C27.76 31.328 28.976 34.544 30.288 38H26.688ZM15.264 8.48C14.048 11.232 12.864 14.032 11.712 16.88C10.592 19.728 9.424 22.8 8.208 26.096H22.368C21.152 22.8 19.968 19.728 18.816 16.88C17.664 14.032 16.48 11.232 15.264 8.48ZM37.998 14.672C38.542 14.256 39.406 13.824 40.59 13.376C41.806 12.896 43.23 12.656 44.862 12.656C46.654 12.656 48.238 12.976 49.614 13.616C51.022 14.256 52.206 15.152 53.166 16.304C54.126 17.456 54.846 18.832 55.326 20.432C55.838 22 56.094 23.728 56.094 25.616C56.094 27.632 55.79 29.44 55.182 31.04C54.606 32.64 53.774 34 52.686 35.12C51.63 36.24 50.35 37.104 48.846 37.712C47.374 38.288 45.726 38.576 43.902 38.576C41.694 38.576 39.87 38.432 38.43 38.144C36.99 37.856 35.806 37.552 34.878 37.232V1.328L37.998 0.751999V14.672ZM37.998 35.072C38.478 35.232 39.182 35.392 40.11 35.552C41.07 35.68 42.318 35.744 43.854 35.744C46.542 35.744 48.702 34.88 50.334 33.152C51.966 31.392 52.782 28.88 52.782 25.616C52.782 24.24 52.638 22.944 52.35 21.728C52.062 20.48 51.598 19.408 50.958 18.512C50.318 17.584 49.47 16.848 48.414 16.304C47.39 15.76 46.11 15.488 44.574 15.488C43.838 15.488 43.134 15.568 42.462 15.728C41.79 15.856 41.166 16.032 40.59 16.256C40.014 16.48 39.502 16.72 39.054 16.976C38.638 17.232 38.286 17.472 37.998 17.696V35.072ZM84.0304 25.616C84.0304 27.568 83.7424 29.344 83.1664 30.944C82.6224 32.544 81.8384 33.904 80.8144 35.024C79.8224 36.144 78.6384 37.024 77.2624 37.664C75.8864 38.272 74.3664 38.576 72.7024 38.576C71.0384 38.576 69.5184 38.272 68.1424 37.664C66.7664 37.024 65.5664 36.144 64.5424 35.024C63.5504 33.904 62.7664 32.544 62.1904 30.944C61.6464 29.344 61.3744 27.568 61.3744 25.616C61.3744 23.664 61.6464 21.888 62.1904 20.288C62.7664 18.688 63.5504 17.328 64.5424 16.208C65.5664 15.056 66.7664 14.176 68.1424 13.568C69.5184 12.928 71.0384 12.608 72.7024 12.608C74.3664 12.608 75.8864 12.928 77.2624 13.568C78.6384 14.176 79.8224 15.056 80.8144 16.208C81.8384 17.328 82.6224 18.688 83.1664 20.288C83.7424 21.888 84.0304 23.664 84.0304 25.616ZM80.7184 25.616C80.7184 22.512 79.9984 20.048 78.5584 18.224C77.1184 16.368 75.1664 15.44 72.7024 15.44C70.2384 15.44 68.2864 16.368 66.8464 18.224C65.4064 20.048 64.6864 22.512 64.6864 25.616C64.6864 28.72 65.4064 31.184 66.8464 33.008C68.2864 34.832 70.2384 35.744 72.7024 35.744C75.1664 35.744 77.1184 34.832 78.5584 33.008C79.9984 31.184 80.7184 28.72 80.7184 25.616ZM109.856 37.136C108.928 37.392 107.68 37.68 106.112 38C104.544 38.32 102.624 38.48 100.352 38.48C98.4959 38.48 96.9439 38.208 95.6959 37.664C94.4479 37.12 93.4399 36.352 92.6719 35.36C91.9039 34.368 91.3439 33.168 90.9919 31.76C90.6719 30.352 90.5119 28.8 90.5119 27.104V13.184H93.6319V26.096C93.6319 27.856 93.7599 29.344 94.0159 30.56C94.2719 31.776 94.6879 32.768 95.2639 33.536C95.8399 34.272 96.5759 34.816 97.4719 35.168C98.3999 35.488 99.5199 35.648 100.832 35.648C102.304 35.648 103.584 35.568 104.672 35.408C105.76 35.248 106.448 35.104 106.736 34.976V13.184H109.856V37.136ZM121.056 13.184H130.944V15.824H121.056V29.024C121.056 30.432 121.168 31.584 121.392 32.48C121.648 33.344 122 34.016 122.448 34.496C122.896 34.976 123.44 35.296 124.08 35.456C124.72 35.616 125.424 35.696 126.192 35.696C127.504 35.696 128.56 35.552 129.36 35.264C130.16 34.944 130.784 34.656 131.232 34.4L132 36.992C131.552 37.28 130.768 37.616 129.648 38C128.528 38.352 127.312 38.528 126 38.528C124.464 38.528 123.168 38.336 122.112 37.952C121.088 37.536 120.256 36.928 119.616 36.128C119.008 35.296 118.576 34.272 118.32 33.056C118.064 31.84 117.936 30.4 117.936 28.736V5.888L121.056 5.312V13.184Z" fill="#AD57C5"/>
<path d="M3.84 94V60.736H26.304V67.024H11.328V73.552H24.624V79.696H11.328V87.712H27.408V94H3.84ZM42.0214 88.288C43.0774 88.288 43.9414 88.208 44.6134 88.048C45.3174 87.856 45.8774 87.616 46.2934 87.328C46.7094 87.008 46.9974 86.64 47.1574 86.224C47.3174 85.808 47.3974 85.344 47.3974 84.832C47.3974 83.744 46.8854 82.848 45.8614 82.144C44.8374 81.408 43.0774 80.624 40.5814 79.792C39.4934 79.408 38.4054 78.976 37.3174 78.496C36.2294 77.984 35.2534 77.36 34.3894 76.624C33.5254 75.856 32.8214 74.944 32.2774 73.888C31.7334 72.8 31.4614 71.488 31.4614 69.952C31.4614 68.416 31.7494 67.04 32.3254 65.824C32.9014 64.576 33.7174 63.52 34.7734 62.656C35.8294 61.792 37.1094 61.136 38.6134 60.688C40.1174 60.208 41.8134 59.968 43.7014 59.968C45.9414 59.968 47.8774 60.208 49.5094 60.688C51.1414 61.168 52.4854 61.696 53.5414 62.272L51.3814 68.176C50.4534 67.696 49.4134 67.28 48.2614 66.928C47.1414 66.544 45.7814 66.352 44.1814 66.352C42.3894 66.352 41.0934 66.608 40.2934 67.12C39.5254 67.6 39.1414 68.352 39.1414 69.376C39.1414 69.984 39.2854 70.496 39.5734 70.912C39.8614 71.328 40.2614 71.712 40.7734 72.064C41.3174 72.384 41.9254 72.688 42.5974 72.976C43.3014 73.232 44.0694 73.504 44.9014 73.792C46.6294 74.432 48.1334 75.072 49.4134 75.712C50.6934 76.32 51.7494 77.04 52.5814 77.872C53.4454 78.704 54.0854 79.68 54.5014 80.8C54.9174 81.92 55.1254 83.28 55.1254 84.88C55.1254 87.984 54.0374 90.4 51.8614 92.128C49.6854 93.824 46.4054 94.672 42.0214 94.672C40.5494 94.672 39.2214 94.576 38.0374 94.384C36.8534 94.224 35.7974 94.016 34.8694 93.76C33.9734 93.504 33.1894 93.232 32.5174 92.944C31.8774 92.656 31.3334 92.384 30.8854 92.128L32.9974 86.176C33.9894 86.72 35.2054 87.216 36.6454 87.664C38.1174 88.08 39.9094 88.288 42.0214 88.288ZM80.9509 60.736H88.4389V94H80.9509V79.888H68.3749V94H60.8869V60.736H68.3749V73.456H80.9509V60.736ZM129.94 94C129.588 92.848 129.188 91.664 128.74 90.448C128.324 89.232 127.908 88.016 127.492 86.8H114.532C114.116 88.016 113.684 89.232 113.236 90.448C112.82 91.664 112.436 92.848 112.084 94H104.308C105.556 90.416 106.74 87.104 107.86 84.064C108.98 81.024 110.068 78.16 111.124 75.472C112.212 72.784 113.268 70.24 114.292 67.84C115.348 65.408 116.436 63.04 117.556 60.736H124.708C125.796 63.04 126.868 65.408 127.924 67.84C128.98 70.24 130.036 72.784 131.092 75.472C132.18 78.16 133.284 81.024 134.404 84.064C135.524 87.104 136.708 90.416 137.956 94H129.94ZM120.964 68.272C120.804 68.752 120.564 69.408 120.244 70.24C119.924 71.072 119.556 72.032 119.14 73.12C118.724 74.208 118.26 75.408 117.748 76.72C117.268 78.032 116.772 79.408 116.26 80.848H125.716C125.204 79.408 124.708 78.032 124.228 76.72C123.748 75.408 123.284 74.208 122.836 73.12C122.42 72.032 122.052 71.072 121.732 70.24C121.412 69.408 121.156 68.752 120.964 68.272ZM151.862 94.48C149.782 94.448 148.086 94.224 146.774 93.808C145.494 93.392 144.47 92.816 143.702 92.08C142.966 91.312 142.454 90.4 142.166 89.344C141.91 88.256 141.782 87.04 141.782 85.696V57.904L148.934 56.752V84.256C148.934 84.896 148.982 85.472 149.078 85.984C149.174 86.496 149.35 86.928 149.606 87.28C149.894 87.632 150.294 87.92 150.806 88.144C151.318 88.368 152.006 88.512 152.87 88.576L151.862 94.48ZM173.145 81.568C173.145 79.36 172.649 77.6 171.657 76.288C170.665 74.944 169.193 74.272 167.241 74.272C166.601 74.272 166.009 74.304 165.465 74.368C164.921 74.4 164.473 74.448 164.121 74.512V87.424C164.569 87.712 165.145 87.952 165.849 88.144C166.585 88.336 167.321 88.432 168.057 88.432C171.449 88.432 173.145 86.144 173.145 81.568ZM180.441 81.376C180.441 83.328 180.201 85.104 179.721 86.704C179.241 88.304 178.537 89.68 177.609 90.832C176.681 91.984 175.529 92.88 174.153 93.52C172.777 94.16 171.193 94.48 169.401 94.48C168.409 94.48 167.481 94.384 166.617 94.192C165.753 94 164.921 93.728 164.121 93.376V102.88H156.969V69.616C157.609 69.424 158.345 69.248 159.177 69.088C160.009 68.896 160.873 68.736 161.769 68.608C162.697 68.48 163.625 68.384 164.553 68.32C165.513 68.224 166.425 68.176 167.289 68.176C169.369 68.176 171.225 68.496 172.857 69.136C174.489 69.744 175.865 70.624 176.985 71.776C178.105 72.896 178.953 74.272 179.529 75.904C180.137 77.536 180.441 79.36 180.441 81.376ZM185.938 94V57.904L193.09 56.752V68.848C193.57 68.688 194.178 68.544 194.914 68.416C195.682 68.256 196.418 68.176 197.122 68.176C199.17 68.176 200.866 68.464 202.21 69.04C203.586 69.584 204.674 70.368 205.474 71.392C206.306 72.416 206.882 73.632 207.202 75.04C207.554 76.448 207.73 78.016 207.73 79.744V94H200.578V80.608C200.578 78.304 200.274 76.672 199.666 75.712C199.09 74.752 198.002 74.272 196.402 74.272C195.762 74.272 195.154 74.336 194.578 74.464C194.034 74.56 193.538 74.672 193.09 74.8V94H185.938ZM223.852 89.008C224.556 89.008 225.228 88.992 225.868 88.96C226.508 88.928 227.02 88.88 227.404 88.816V83.392C227.116 83.328 226.684 83.264 226.108 83.2C225.532 83.136 225.004 83.104 224.524 83.104C223.852 83.104 223.212 83.152 222.604 83.248C222.028 83.312 221.516 83.456 221.068 83.68C220.62 83.904 220.268 84.208 220.012 84.592C219.756 84.976 219.628 85.456 219.628 86.032C219.628 87.152 219.996 87.936 220.732 88.384C221.5 88.8 222.54 89.008 223.852 89.008ZM223.276 68.08C225.388 68.08 227.148 68.32 228.556 68.8C229.964 69.28 231.084 69.968 231.916 70.864C232.78 71.76 233.388 72.848 233.74 74.128C234.092 75.408 234.268 76.832 234.268 78.4V93.28C233.244 93.504 231.82 93.76 229.996 94.048C228.172 94.368 225.964 94.528 223.372 94.528C221.74 94.528 220.252 94.384 218.908 94.096C217.596 93.808 216.46 93.344 215.5 92.704C214.54 92.032 213.804 91.168 213.292 90.112C212.78 89.056 212.524 87.76 212.524 86.224C212.524 84.752 212.812 83.504 213.388 82.48C213.996 81.456 214.796 80.64 215.788 80.032C216.78 79.424 217.916 78.992 219.196 78.736C220.476 78.448 221.804 78.304 223.18 78.304C224.108 78.304 224.924 78.352 225.628 78.448C226.364 78.512 226.956 78.608 227.404 78.736V78.064C227.404 76.848 227.036 75.872 226.3 75.136C225.564 74.4 224.284 74.032 222.46 74.032C221.244 74.032 220.044 74.128 218.86 74.32C217.676 74.48 216.652 74.72 215.788 75.04L214.876 69.28C215.292 69.152 215.804 69.024 216.412 68.896C217.052 68.736 217.74 68.608 218.476 68.512C219.212 68.384 219.98 68.288 220.78 68.224C221.612 68.128 222.444 68.08 223.276 68.08Z" fill="black"/>
</svg>
